<?xml version="1.0" standalone="no"?>
<!DOCTYPE svg PUBLIC "-//W3C//DTD SVG 20010904//EN"
 "http://www.w3.org/TR/2001/REC-SVG-20010904/DTD/svg10.dtd">
<svg version="1.0" xmlns="http://www.w3.org/2000/svg"
 width="141.000000pt" height="141.000000pt" viewBox="0 0 141.000000 141.000000"
 preserveAspectRatio="xMidYMid meet">
<metadata>
Created by potrace 1.14, written by Peter Selinger 2001-2017
</metadata>
<g transform="translate(0.000000,141.000000) scale(0.100000,-0.100000)"
fill="#000000" stroke="none">
<path d="M397 1399 c-100 -24 -192 -103 -228 -197 -16 -44 -21 -77 -20 -147 0
-49 3 -99 5 -111 2 -11 7 -47 10 -80 29 -272 117 -613 192 -747 31 -57 87
-107 119 -107 67 0 87 38 96 191 8 136 28 206 74 254 91 97 188 -29 194 -252
2 -107 9 -138 37 -168 52 -56 125 -17 187 102 34 66 101 262 112 332 3 19 8
37 10 40 8 13 48 257 61 366 3 33 8 69 10 80 10 50 4 193 -10 233 -31 86 -90
150 -176 190 -106 50 -260 28 -338 -48 l-24 -22 -43 31 c-25 18 -60 38 -80 47
-45 18 -138 25 -188 13z"/>
</g>
</svg>
